<?xml version="1.0" standalone="no"?>
<!DOCTYPE svg PUBLIC "-//W3C//DTD SVG 20010904//EN"
 "http://www.w3.org/TR/2001/REC-SVG-20010904/DTD/svg10.dtd">
<svg version="1.0" xmlns="http://www.w3.org/2000/svg"
 width="2073.000000pt" height="2073.000000pt" viewBox="0 0 2073.000000 2073.000000"
 preserveAspectRatio="xMidYMid meet">

<g transform="translate(0.000000,2073.000000) scale(0.100000,-0.100000)"
fill="#000000" stroke="none">
<path d="M10155 20723 c-2161 -41 -4267 -766 -5999 -2067 -428 -322 -763 -615
-1151 -1008 -381 -385 -624 -665 -934 -1078 -390 -519 -703 -1029 -1000 -1630
-962 -1943 -1283 -4145 -920 -6315 137 -820 390 -1663 729 -2435 829 -1885
2226 -3501 3980 -4605 540 -340 1196 -668 1795 -898 2235 -856 4717 -912 6985
-157 750 250 1519 611 2185 1025 691 429 1276 895 1866 1484 589 590 1055
1175 1484 1866 339 544 664 1205 888 1800 712 1896 856 3946 416 5920 -326
1464 -975 2853 -1887 4040 -1154 1500 -2685 2656 -4427 3340 -973 383 -1955
608 -3006 690 -183 14 -776 37 -844 33 -16 -1 -88 -3 -160 -5z m33 -230 c-18
-32 -452 -814 -965 -1737 -569 -1025 -934 -1674 -938 -1665 -36 93 -933 3005
-927 3010 10 10 320 98 522 149 707 177 1549 293 2183 299 l157 1 -32 -57z
m747 47 c795 -47 1505 -167 2278 -386 87 -25 98 -30 93 -48 -22 -85 -922
-3016 -926 -3016 -3 0 -424 779 -937 1730 l-931 1730 126 0 c70 0 204 -5 297
-10z m404 -1883 c748 -1389 961 -1793 955 -1807 -16 -34 -1889 -3049 -1894
-3049 -5 0 -2022 3043 -2028 3059 -5 13 1991 3601 1998 3593 4 -5 440 -813
969 -1796z m4456 -147 l2320 -1530 698 -1586 c384 -873 696 -1588 694 -1590
-2 -2 -1577 695 -3501 1549 -3421 1518 -3497 1553 -3492 1577 2 14 217 717
475 1563 259 845 471 1540 471 1542 0 3 4 5 8 5 4 0 1052 -689 2327 -1530z
m-8113 -51 c263 -844 478 -1538 478 -1544 0 -10 -6922 -3087 -6929 -3080 -5 6
1369 3127 1383 3143 23 24 4571 3021 4581 3018 6 -1 225 -693 487 -1537z
m6608 1314 c1164 -481 2298 -1232 3195 -2118 94 -92 163 -163 155 -158 -95 61
-3578 2358 -3585 2365 -12 11 45 -11 235 -89z m-7635 78 c-14 -12 -3527 -2326
-3545 -2335 -8 -4 48 54 125 129 949 923 1974 1603 3205 2127 199 84 235 98
215 79z m2583 -4607 c530 -801 962 -1457 960 -1460 -3 -2 -874 -3 -1936 -2
l-1931 3 966 1458 c531 801 968 1457 972 1457 3 -1 440 -656 969 -1456z m4201
-14 l1010 -1445 -964 -3 c-531 -1 -1399 -1 -1929 0 l-963 3 905 1458 c746
1202 907 1456 918 1445 7 -7 467 -663 1023 -1458z m-5416 1416 c-4 -8 -433
-656 -953 -1440 l-945 -1426 -2290 1 c-2287 0 -2290 0 -2250 20 63 31 6429
2857 6438 2858 4 1 4 -5 0 -13z m8475 -1696 l2624 -1165 -2228 -3 c-2112 -2
-2229 -1 -2245 15 -14 15 -1973 2817 -1992 2849 -4 7 269 -111 606 -260 336
-149 1792 -796 3235 -1436z m2182 1310 c447 -626 835 -1332 1125 -2045 69
-169 165 -420 165 -431 0 -2 -59 -3 -132 -2 l-132 3 -588 1335 c-323 734 -588
1337 -588 1340 1 7 21 -20 150 -200z m-16616 -102 c-69 -156 -332 -754 -586
-1330 l-461 -1048 -128 0 -129 0 35 95 c246 680 625 1432 1043 2070 103 158
339 495 346 495 2 0 -52 -127 -120 -282z m2002 -9006 c1695 -3551 3080 -6458
3079 -6460 -5 -6 -355 123 -580 213 -1512 608 -2864 1576 -3925 2811 -73 85
-98 122 -108 159 -28 105 -2293 7441 -2302 7458 -7 12 -4 71 10 195 80 680
209 1287 411 1925 l50 157 142 0 142 -1 3081 -6457z m3247 2546 c664 -2151
1205 -3913 1204 -3915 -4 -3 -7300 7806 -7305 7819 -2 4 1098 8 2445 8 l2449
0 1207 -3912z m2947 3905 c0 -21 -1584 -7699 -1589 -7706 -6 -6 -607 1936
-2342 7561 l-47 152 1989 0 c1094 0 1989 -3 1989 -7z m4240 2 c0 -6 -2359
-7655 -2367 -7675 -3 -9 -11 8 -19 40 -7 30 -362 1752 -789 3825 -427 2074
-779 3780 -782 3793 l-5 22 1981 0 c1090 0 1981 -2 1981 -5z m5033 -2 c4 -7
-7245 -7774 -7250 -7769 -2 1 2373 7708 2392 7764 3 9 498 12 2429 12 1334 0
2427 -3 2429 -7z m540 -118 c145 -454 270 -969 348 -1440 34 -209 76 -526 85
-647 l6 -83 -1146 -3715 c-630 -2043 -1153 -3729 -1163 -3747 -64 -114 -738
-819 -1038 -1085 -852 -755 -1780 -1346 -2795 -1780 -280 -120 -746 -295 -757
-284 -2 2 1379 2901 3070 6442 2190 4588 3071 6443 3064 6452 -8 10 19 12 139
10 l148 -3 39 -120z m-8853 -4017 l803 -3897 -813 -2636 c-448 -1449 -817
-2632 -820 -2628 -4 5 -369 1183 -812 2619 l-805 2611 809 3929 c445 2161 811
3936 815 3944 4 10 8 6 13 -15 5 -16 369 -1784 810 -3927z m-6223 -170 c1979
-2119 3607 -3862 3619 -3873 16 -15 222 -671 823 -2620 441 -1430 804 -2608
808 -2619 5 -17 -2 -18 -163 -12 -673 26 -1194 87 -1779 206 -341 70 -906 217
-931 243 -6 7 -1354 2825 -2994 6262 -1640 3438 -2984 6253 -2987 6258 -2 4
-2 7 1 7 3 0 1624 -1734 3603 -3852z m14309 3740 c-195 -415 -5920 -12404
-5925 -12410 -9 -10 -361 -111 -556 -159 -594 -147 -1234 -244 -1840 -278
-371 -21 -445 -23 -445 -9 0 7 366 1197 813 2644 l812 2631 3593 3846 c1976
2116 3595 3847 3597 3847 2 0 -20 -51 -49 -112z m-18067 -5538 c561 -1817
1019 -3306 1017 -3307 -1 -2 -60 75 -130 171 -824 1130 -1410 2428 -1710 3786
-122 550 -191 1057 -227 1655 -12 213 -15 929 -4 1027 l8 63 13 -45 c7 -25
472 -1532 1033 -3350z m19317 2720 c-8 -449 -30 -764 -82 -1170 -186 -1457
-688 -2854 -1475 -4107 -148 -237 -479 -713 -494 -713 -2 0 7 35 21 77 13 43
473 1533 1021 3312 l998 3234 8 -149 c5 -82 6 -300 3 -484z"/>
</g>
</svg>
